# xmcd CD database file
#
# Track frame offsets:
#	150
#	16842
#	29772
#	49156
#	64496
#	72945
#	89045
#	100982
#	115948
#	131237
#	146957
#	166205
#	221943
#	250186
#	269905
#
# Disc length: 4111 seconds
#
# Revision: 2
# Processed by: cddbd v1.5.2PL0 Copyright (c) Steve Scherf et al.
# Submitted via: ACXtractor (MTCDDB.DLL V2003.12.21)
#
DISCID=fa100d0f
DTITLE=The Barry Goldberg Reunion and Friends - There's No Hole in My Soul (Plus
DTITLE=)
DYEAR=1968
DGENRE=Blues
TTITLE0=Sitting In Circles
TTITLE1=Hole In My Pocket
TTITLE2=It Hurts Me Too
TTITLE3=Fool On A Hill
TTITLE4=Capricorn Blues
TTITLE5=Another Day
TTITLE6=Sugar Coated Love
TTITLE7=Strung And Young
TTITLE8=I Think I'm Gonna Cry
TTITLE9=The Answers In Your Head
TTITLE10=Sweet Home Chicago (bonus)
TTITLE11=I Got To Love My Woman (bonus)
TTITLE12=Long Hard Journey (bonus)
TTITLE13=Woke Up This Morning (bonus)
TTITLE14=Messa Da' Blues (bonus)
EXTD=ID3G:   0 YEAR: 1968
EXTT0=
EXTT1=
EXTT2=
EXTT3=
EXTT4=
EXTT5=
EXTT6=
EXTT7=
EXTT8=
EXTT9=
EXTT10=
EXTT11=
EXTT12=
EXTT13=
EXTT14=
PLAYORDER=
